<!DOCTYPE svg PUBLIC "-//W3C//DTD SVG 20010904//EN" "http://www.w3.org/TR/2001/REC-SVG-20010904/DTD/svg10.dtd">
<svg version="1.0" xmlns="http://www.w3.org/2000/svg" width="512px" height="512px" viewBox="0 0 5120 5120" preserveAspectRatio="xMidYMid meet">
<g id="layer101" fill="#1f93ff" stroke="none">
 <path d="M1775 4710 c-44 -17 -138 -59 -210 -95 -663 -328 -1125 -973 -1219 -1703 -21 -161 -21 -433 0 -594 61 -470 272 -907 608 -1256 342 -355 778 -579 1281 -659 155 -24 499 -24 650 1 511 82 938 302 1281 658 336 349 547 786 608 1256 21 161 21 433 0 594 -97 748 -580 1407 -1267 1728 -229 106 -310 121 -366 66 l-26 -26 -5 -403 -5 -402 -28 -79 c-27 -76 -68 -148 -101 -175 -26 -22 -19 -28 42 -35 31 -4 98 -15 149 -26 459 -96 716 -353 788 -789 56 -339 6 -588 -161 -811 l-45 -60 17 -57 c38 -128 27 -344 -24 -481 l-18 -47 -67 2 c-43 1 -98 11 -150 28 -86 28 -257 113 -335 167 l-45 31 -136 -27 c-317 -62 -545 -62 -862 0 l-136 27 -45 -31 c-78 -54 -249 -139 -335 -167 -52 -17 -107 -27 -150 -28 l-67 -2 -18 47 c-51 137 -62 353 -24 481 l18 58 -40 52 c-138 181 -187 335 -186 577 3 488 198 814 576 964 94 37 231 72 340 87 51 7 95 14 97 16 2 1 -12 20 -31 41 -44 48 -78 119 -98 202 l-16 65 -69 24 c-44 15 -103 25 -161 28 -190 11 -307 -57 -438 -255 -54 -82 -123 -142 -206 -180 -63 -29 -142 -39 -183 -23 -47 18 -32 48 58 116 121 92 167 156 256 350 32 69 129 164 209 203 80 40 181 62 280 62 71 0 194 -14 233 -26 16 -5 17 10 17 230 l0 236 -28 31 c-41 46 -101 49 -207 9z"/>
 <path d="M1729 4044 c-21 -25 1 -49 46 -49 24 0 42 6 48 17 16 24 -8 48 -48 48 -18 0 -38 -7 -46 -16z"/>
 <path d="M1562 4024 c-35 -24 -26 -58 16 -62 56 -6 95 45 53 68 -27 14 -43 13 -69 -6z"/>
 <path d="M1893 4024 c-11 -30 11 -49 58 -49 34 0 44 4 47 18 6 29 -17 47 -60 47 -27 0 -41 -5 -45 -16z"/>
 <path d="M1404 3925 c-23 -35 -15 -60 20 -60 34 0 71 41 60 68 -10 27 -60 22 -80 -8z"/>
 <path d="M1302 3808 c-17 -17 -15 -65 4 -72 34 -13 79 42 59 73 -8 15 -48 14 -63 -1z"/>
 <path d="M1216 3681 c-22 -24 -17 -55 10 -59 25 -4 57 30 52 55 -5 25 -41 28 -62 4z"/>
 <path d="M1122 3588 c-29 -29 -1 -59 37 -38 29 15 28 50 -2 50 -13 0 -28 -5 -35 -12z"/>
 </g>

</svg>