<!DOCTYPE svg PUBLIC "-//W3C//DTD SVG 20010904//EN" "http://www.w3.org/TR/2001/REC-SVG-20010904/DTD/svg10.dtd">
<svg version="1.0" xmlns="http://www.w3.org/2000/svg" width="600px" height="600px" viewBox="0 0 6000 6000" preserveAspectRatio="xMidYMid meet">
<g id="layer101" fill="#1f93ff" stroke="none">
 <path d="M347 5979 c-121 -29 -240 -125 -298 -244 l-34 -70 0 -2665 0 -2665 34 -72 c56 -119 172 -212 302 -242 61 -14 5237 -14 5298 0 129 29 247 123 302 241 l34 73 0 2665 0 2665 -34 70 c-59 121 -176 215 -302 244 -56 13 -5247 13 -5302 0z"/>
 </g>
<g id="layer102" fill="#ffffff" stroke="none">
 <path d="M900 3675 l0 -1425 443 2 442 3 0 1420 0 1420 -442 3 -443 2 0 -1425z"/>
 <path d="M2340 3675 l0 -1425 423 2 422 3 3 193 c1 105 6 192 10 192 4 0 17 -17 29 -38 36 -65 109 -147 175 -200 215 -170 462 -239 773 -213 499 42 780 287 880 771 42 200 45 288 45 1233 l0 907 -442 -2 -443 -3 -5 -860 c-5 -843 -6 -862 -27 -937 -42 -149 -101 -233 -200 -286 -77 -41 -164 -56 -271 -49 -255 17 -396 140 -458 399 -28 119 -34 286 -34 1006 l0 732 -440 0 -440 0 0 -1425z"/>
 <path d="M1265 1860 c-286 -45 -484 -330 -424 -612 39 -182 185 -338 368 -392 70 -21 202 -21 272 0 268 79 432 357 364 617 -57 221 -237 371 -465 390 -36 3 -87 1 -115 -3z"/>
 </g>

</svg>