<?xml version="1.0" standalone="no"?>
<!DOCTYPE svg PUBLIC "-//W3C//DTD SVG 20010904//EN"
 "http://www.w3.org/TR/2001/REC-SVG-20010904/DTD/svg10.dtd">
<svg version="1.0" xmlns="http://www.w3.org/2000/svg"
 width="936.000000pt" height="936.000000pt" viewBox="0 0 936.000000 936.000000"
 preserveAspectRatio="xMidYMid meet">
<metadata>
Created by potrace 1.11, written by Peter Selinger 2001-2013
</metadata>
<g transform="translate(0.000000,936.000000) scale(0.100000,-0.100000)"
fill="#000000" stroke="none">
<path d="M2577 8816 c-90 -20 -136 -34 -154 -49 -7 -5 -13 -7 -13 -4 0 10
-122 -63 -170 -102 -24 -20 -60 -53 -80 -74 -43 -48 -119 -158 -120 -174 0 -6
-3 -13 -7 -15 -5 -1 -19 -25 -33 -51 -14 -27 -28 -50 -31 -53 -3 -2 -37 5 -75
15 -72 20 -203 47 -276 58 -74 11 -251 7 -308 -7 -80 -18 -175 -67 -209 -106
-17 -19 -35 -34 -41 -34 -5 0 -10 -5 -10 -11 0 -6 -9 -24 -21 -40 -11 -16 -17
-29 -13 -29 3 0 2 -6 -3 -12 -10 -13 -29 -65 -39 -109 -3 -13 -7 -73 -8 -134
-2 -107 8 -187 39 -337 7 -39 26 -112 33 -128 3 -8 6 -18 7 -22 2 -5 3 -9 5
-10 1 -2 3 -11 5 -22 7 -38 49 -159 109 -313 l36 -93 -30 -50 c-17 -28 -30
-55 -30 -60 0 -4 -3 -10 -8 -12 -8 -3 -205 -345 -210 -365 -2 -7 -7 -13 -10
-13 -4 0 -13 -15 -21 -32 -8 -18 -19 -40 -26 -48 -7 -8 -24 -35 -37 -60 -68
-124 -93 -165 -100 -168 -4 -2 -8 -9 -8 -16 0 -6 -11 -28 -25 -49 -14 -20 -22
-37 -18 -37 4 0 3 -4 -3 -8 -10 -6 -33 -45 -80 -132 -11 -19 -21 -37 -24 -40
-3 -3 -10 -14 -16 -25 -6 -11 -63 -110 -126 -220 -64 -110 -124 -216 -135
-235 -45 -79 -84 -146 -93 -160 -6 -8 -13 -22 -17 -30 -3 -8 -19 -34 -35 -57
-16 -24 -26 -43 -23 -43 3 0 -7 -19 -23 -42 -16 -24 -33 -54 -37 -67 -4 -13
-14 -40 -23 -60 -8 -20 -16 -43 -18 -51 -1 -8 -5 -26 -9 -40 -4 -14 -9 -77
-11 -140 -5 -185 24 -284 140 -481 36 -61 66 -115 66 -120 0 -5 5 -9 10 -9 6
0 10 -5 10 -11 0 -6 17 -39 37 -73 21 -33 37 -64 36 -68 -1 -3 4 -12 12 -18 8
-7 15 -19 15 -26 0 -8 5 -14 10 -14 6 0 10 -5 10 -10 0 -6 21 -45 46 -88 25
-42 49 -84 54 -92 5 -8 29 -50 54 -93 25 -43 46 -82 46 -87 0 -6 4 -10 8 -10
4 0 13 -12 19 -27 7 -16 17 -35 22 -43 35 -54 123 -210 140 -247 6 -13 16 -23
22 -23 7 0 10 -3 6 -6 -3 -3 8 -27 24 -54 16 -26 29 -52 29 -59 0 -6 4 -11 9
-11 5 0 13 -10 16 -21 4 -12 25 -49 46 -83 21 -33 39 -67 39 -73 0 -7 5 -13
10 -13 6 0 10 -5 10 -10 0 -6 18 -40 40 -76 22 -36 40 -68 40 -70 0 -2 24 -44
54 -94 30 -50 58 -100 61 -110 4 -11 11 -20 16 -20 5 0 9 -4 9 -9 0 -6 31 -64
70 -130 38 -66 70 -124 70 -130 0 -6 3 -11 8 -11 4 0 12 -10 18 -23 6 -12 52
-93 102 -181 51 -87 92 -162 92 -167 0 -5 5 -9 10 -9 6 0 10 -7 10 -15 0 -8 5
-15 11 -15 5 0 8 -4 4 -9 -3 -5 -1 -12 4 -16 5 -3 16 -18 24 -33 22 -42 58
-105 76 -132 10 -14 23 -40 30 -58 8 -17 17 -32 21 -32 4 0 15 -17 24 -37 10
-21 22 -47 29 -58 61 -100 97 -165 97 -174 0 -6 3 -11 8 -11 4 0 18 -21 32
-47 13 -27 27 -50 30 -53 3 -3 15 -23 26 -45 47 -88 120 -211 139 -234 112
-137 244 -231 375 -270 25 -7 59 -18 75 -24 41 -15 4133 -21 4202 -6 26 5 55
11 63 12 34 6 126 41 132 51 4 6 8 7 8 3 0 -10 83 37 135 76 60 45 153 146
183 199 15 27 30 48 35 48 4 0 7 9 7 20 0 10 6 23 13 27 6 4 20 24 31 43 10
19 30 57 45 85 14 27 34 58 43 69 10 10 15 23 12 28 -3 4 0 8 5 8 6 0 11 6 11
14 0 8 3 16 8 18 4 2 17 21 29 43 15 28 27 39 40 36 19 -3 291 -109 308 -119
6 -4 15 -7 21 -8 8 -1 213 -81 448 -175 27 -10 52 -19 57 -19 6 0 -45 139 -70
188 -5 9 -28 67 -52 127 -24 61 -45 112 -48 115 -4 3 -7 13 -9 24 -3 16 -50
133 -110 271 -9 21 -17 42 -18 45 0 3 -6 19 -13 35 -7 17 -14 36 -15 43 -1 7
-8 18 -14 24 -7 7 -12 17 -12 24 0 7 -15 49 -34 93 -19 45 -30 84 -25 87 5 3
16 20 24 37 8 18 19 39 25 47 15 24 123 211 145 253 11 20 23 37 27 37 5 0 8
9 8 20 0 11 4 20 9 20 5 0 11 8 15 18 3 9 19 40 36 67 17 28 33 58 36 67 4 10
10 18 15 18 5 0 9 7 9 15 0 9 9 25 20 37 10 12 17 25 14 30 -3 4 -1 8 3 8 9 0
11 4 56 93 15 30 34 60 42 67 8 7 15 17 15 22 0 6 27 55 60 110 33 56 60 104
60 109 0 4 6 14 13 21 7 7 18 24 25 38 6 14 16 33 22 43 5 9 15 25 20 35 6 9
13 24 17 32 4 8 9 17 13 20 4 3 26 41 50 85 24 44 52 92 62 107 11 16 16 28
11 28 -4 0 -3 4 2 8 12 8 85 130 85 141 0 5 8 19 18 32 10 13 34 53 53 89 18
36 36 67 40 70 3 3 20 32 38 65 18 32 42 72 52 87 11 15 18 28 15 28 -8 0 45
82 59 92 5 4 6 8 2 8 -4 0 8 24 27 54 19 30 32 57 29 60 -4 3 -1 6 5 6 6 0 16
16 23 35 7 19 17 35 22 35 5 0 7 7 4 15 -4 8 -2 17 3 20 10 6 34 83 46 145 21
112 3 309 -37 405 -7 17 -13 32 -13 35 -1 3 -5 11 -10 19 -5 8 -22 38 -37 65
-14 28 -36 67 -48 86 -11 19 -24 42 -28 50 -3 8 -9 17 -12 20 -3 3 -15 23 -27
45 -37 71 -76 140 -88 155 -7 8 -18 29 -26 45 -8 17 -17 32 -20 35 -5 5 -9 12
-52 89 -11 20 -46 79 -76 131 -31 52 -57 97 -57 100 0 3 -8 16 -17 30 -35 55
-88 152 -88 161 0 5 -3 9 -7 9 -5 0 -13 10 -19 23 -19 39 -76 141 -88 157 -11
15 -21 32 -57 98 -11 20 -29 51 -39 67 -10 17 -25 41 -33 55 -7 14 -26 48 -42
75 -16 28 -33 59 -39 70 -6 11 -13 22 -16 25 -5 5 -23 36 -57 100 -10 19 -24
40 -30 48 -7 7 -13 17 -13 22 0 5 -18 38 -40 72 -22 35 -40 68 -40 75 0 6 -3
13 -7 15 -5 2 -19 23 -32 48 -14 25 -27 47 -30 50 -3 3 -14 21 -23 40 -17 35
-27 51 -119 208 -27 45 -49 85 -49 89 0 4 -6 14 -14 22 -7 9 -24 36 -37 61
-13 25 -27 47 -30 50 -5 5 -22 36 -53 97 -6 13 -14 23 -18 23 -5 0 -8 5 -8 10
0 6 -31 65 -70 131 -38 66 -70 124 -70 129 0 4 -4 10 -8 12 -4 2 -23 30 -41
63 -65 115 -70 124 -95 164 -15 22 -26 43 -26 46 0 3 -15 30 -34 60 -19 29
-32 56 -29 59 4 3 1 6 -5 6 -7 0 -12 4 -12 10 0 5 -25 50 -55 100 -30 50 -55
93 -55 95 0 15 -124 144 -180 187 -75 58 -212 117 -320 137 -87 16 -4118 13
-4193 -3z"/>
</g>
</svg>
