<!DOCTYPE svg PUBLIC "-//W3C//DTD SVG 20010904//EN" "http://www.w3.org/TR/2001/REC-SVG-20010904/DTD/svg10.dtd">
<svg version="1.0" xmlns="http://www.w3.org/2000/svg" width="512px" height="512px" viewBox="0 0 5120 5120" preserveAspectRatio="xMidYMid meet">
<g id="layer101" fill="#1f93ff" stroke="none">
 <path d="M2395 4624 c-314 -36 -525 -97 -766 -220 -211 -108 -370 -226 -539 -400 -386 -398 -583 -883 -583 -1439 0 -556 197 -1041 583 -1439 169 -174 328 -292 539 -400 414 -212 887 -277 1350 -185 858 171 1512 866 1636 1741 19 134 19 432 0 566 -147 1034 -1026 1793 -2062 1781 -70 -1 -141 -4 -158 -5z m-837 -1891 l-3 -318 -42 -3 -43 -3 0 320 0 321 45 0 45 0 -2 -317z m171 -35 c0 -352 -1 -353 -19 -313 -10 22 -19 48 -19 58 -1 19 -14 22 -42 7 -19 -10 -19 -4 -19 295 l0 305 50 0 50 0 -1 -352z m171 -88 c0 -242 -4 -440 -8 -440 -5 0 -27 16 -50 36 l-42 36 0 404 0 404 50 0 50 0 0 -440z m180 -35 c0 -373 -3 -475 -12 -475 -7 0 -30 5 -50 11 l-38 10 0 464 0 465 50 0 50 0 0 -475z m180 1 l0 -473 -37 -7 c-21 -3 -44 -6 -50 -6 -10 0 -13 103 -13 480 l0 480 50 0 50 0 0 -474z m180 -13 l-1 -488 -20 24 c-11 13 -23 31 -28 39 -6 11 -12 12 -30 3 l-21 -12 0 461 0 460 50 0 50 0 0 -487z m170 -68 c0 -305 -4 -555 -8 -555 -4 0 -27 14 -50 31 l-42 31 0 524 0 524 50 0 50 0 0 -555z m1152 517 c293 -144 231 -567 -91 -623 -47 -9 -71 -8 -121 5 -35 9 -64 15 -65 14 -1 -2 -9 -35 -18 -75 -46 -206 -209 -382 -412 -445 -83 -26 -241 -29 -315 -6 l-45 14 -3 577 -2 578 503 -3 502 -3 67 -33z m-2372 -288 l0 -296 -32 19 -33 19 -3 262 -2 261 27 15 c16 8 31 15 36 16 4 0 7 -133 7 -296z m-140 -1 l0 -188 -21 34 c-35 57 -52 143 -40 205 9 51 45 136 56 136 3 0 5 -84 5 -187z"/>
 </g>

</svg>