<svg xmlns="http://www.w3.org/2000/svg" viewBox="0 0 164.64 111.52"><defs><style>.cls-1,.cls-5{fill:#347ca0;}.cls-2{fill:#fcba17;stroke:#fbb919;stroke-linecap:round;stroke-miterlimit:10;stroke-width:7px;}.cls-3{fill:#255f7b;}.cls-3,.cls-5{opacity:0.5;}.cls-4{fill:#f1f2ed;}.cls-6{fill:#b3b5b4;}</style></defs><title>contact</title><g id="Layer_2" data-name="Layer 2"><g id="Layer_1-2" data-name="Layer 1"><path class="cls-1" d="M101.51,4.4A9.62,9.62,0,0,0,94,.07H44a9.6,9.6,0,0,0-7.5,4.33l-25,43.31a9.57,9.57,0,0,0,0,8.66l25,43.3A9.6,9.6,0,0,0,44,104H94a9.62,9.62,0,0,0,7.5-4.33l25-43.3a9.64,9.64,0,0,0,0-8.66Z"/><line class="cls-2" x1="90.56" y1="98.42" x2="104.41" y2="108.02"/><line class="cls-2" x1="100.97" y1="83.41" x2="124.69" y2="99.85"/><line class="cls-2" x1="111.17" y1="68.69" x2="141.66" y2="89.82"/><line class="cls-2" x1="121.27" y1="54.11" x2="161.14" y2="81.75"/><path class="cls-3" d="M44.07,104l6.2,0L15.06,44.45a9.27,9.27,0,0,0-1,1.79c-1,2.36.13,4.3-.67,4.91-.33.25-1,.34-2.81-.71a9.58,9.58,0,0,0,1.54,6.93L36.58,99.8A8.41,8.41,0,0,0,38,101.47a9.39,9.39,0,0,0,2.09,1.42,8.32,8.32,0,0,0,2.59,1A7.36,7.36,0,0,0,44.07,104Z"/><path class="cls-3" d="M103.94,8.59c-.44-.73-.87-1.47-1.31-2.21s-1-1.68-1.47-2.51A9.33,9.33,0,0,0,94.38.12L45,.24A8.37,8.37,0,0,0,41.36,2a12.44,12.44,0,0,0-2.8,3.38l-1.3,3.18Z"/><path class="cls-4" d="M42.51,47.79a4.56,4.56,0,0,0,1.64,2.38,4,4,0,0,0,2.79.7l67-9.56h.28L54.66,0,43.38.09a9.77,9.77,0,0,0-3.5,1.18,10.11,10.11,0,0,0-3.35,3.06c-.86,1.5-1.72,3-2.59,4.51C38.32,30,41.72,45.43,42.51,47.79Z"/><path class="cls-4" d="M22.42,28.8l10.57-1q-1.37-6.27-2.72-12.54Z"/><polygon class="cls-4" points="68.74 52.81 80.21 95.51 114.3 46.32 68.74 52.81"/><path class="cls-4" d="M47.65,55.82a9.11,9.11,0,0,1-10-7L34.5,34.66,18.08,36.24l-7,12.3a8.83,8.83,0,0,0-.52,1.9,8.55,8.55,0,0,0,0,2.61L73.23,96.52Q67.5,75.18,61.75,53.81Z"/><path class="cls-5" d="M.35,102.8l-.23-.14-.12.2Z"/><path class="cls-6" d="M54.94.05,43.6.09a10.2,10.2,0,0,0-3.9,1.27A10.07,10.07,0,0,0,37,3.66L33.89,9l1.83,8.35q2.73-4.74,5.47-9.49a6,6,0,0,1,1.69-1.3,6.15,6.15,0,0,1,2-.63H63.26Z"/><path class="cls-6" d="M29.52,28.06q1.29-2.22,2.57-4.45l-1.82-8.35-7.8,13.5Z"/><path class="cls-6" d="M16,52.06a2.52,2.52,0,0,1,.31-1.12q4.45-7.74,8.92-15.46l-7,.7-6.94,12a8.75,8.75,0,0,0-.79,3.08A8.37,8.37,0,0,0,10.53,53l9.41,6.61-3.55-6.16A2.44,2.44,0,0,1,16,52.06Z"/></g></g></svg>