<svg xmlns="http://www.w3.org/2000/svg" viewBox="0 0 164.64 111.52"><defs><style>.cls-1,.cls-2{fill:#347ca0;}.cls-1,.cls-6{opacity:0.5;}.cls-3{fill:#fcba17;}.cls-4{fill:#fbb919;}.cls-5{fill:#f1f2ed;}.cls-6,.cls-7{fill:#b3b5b4;}</style></defs><title>contact</title><g id="Layer_2" data-name="Layer 2"><g id="Layer_1-2" data-name="Layer 1"><path class="cls-1" d="M.35,102.8l-.23-.14-.12.2Z"/><path class="cls-2" d="M101.51,4.4A9.62,9.62,0,0,0,94,.07H44a9.6,9.6,0,0,0-7.5,4.33l-25,43.31a9.57,9.57,0,0,0,0,8.66l25,43.3A9.6,9.6,0,0,0,44,104H94a9.62,9.62,0,0,0,7.5-4.33l25-43.3a9.64,9.64,0,0,0,0-8.66Z"/><line class="cls-3" x1="90.56" y1="98.42" x2="104.41" y2="108.02"/><path class="cls-4" d="M104.4,111.52a3.51,3.51,0,0,1-2-.62l-13.85-9.6a3.5,3.5,0,1,1,4-5.75l13.85,9.59a3.5,3.5,0,0,1-2,6.38Z"/><line class="cls-3" x1="100.97" y1="83.41" x2="124.69" y2="99.85"/><path class="cls-4" d="M124.69,103.35a3.46,3.46,0,0,1-2-.63L99,86.28a3.5,3.5,0,1,1,4-5.75L126.68,97a3.5,3.5,0,0,1-2,6.38Z"/><line class="cls-3" x1="111.17" y1="68.69" x2="141.66" y2="89.82"/><path class="cls-4" d="M141.66,93.32a3.49,3.49,0,0,1-2-.62L109.18,71.56a3.5,3.5,0,1,1,4-5.75L143.66,87a3.5,3.5,0,0,1-2,6.37Z"/><line class="cls-3" x1="121.27" y1="54.11" x2="161.14" y2="81.75"/><path class="cls-4" d="M161.14,85.25a3.49,3.49,0,0,1-2-.62L119.28,57a3.5,3.5,0,0,1,4-5.75l39.87,27.64a3.5,3.5,0,0,1-2,6.37Z"/><path class="cls-5" d="M42.51,47.79a4.56,4.56,0,0,0,1.64,2.38,4,4,0,0,0,2.79.7l67-9.56h.28L54.66,0,43.38.09a9.77,9.77,0,0,0-3.5,1.18,10.11,10.11,0,0,0-3.35,3.06c-.86,1.5-1.72,3-2.59,4.51C38.32,30,41.72,45.43,42.51,47.79Z"/><path class="cls-5" d="M22.42,28.8l10.57-1q-1.37-6.27-2.72-12.54Z"/><polygon class="cls-5" points="68.74 52.81 80.21 95.51 114.3 46.32 68.74 52.81"/><path class="cls-5" d="M47.65,55.82a9.11,9.11,0,0,1-10-7L34.5,34.66,18.08,36.24l-7,12.3a8.83,8.83,0,0,0-.52,1.9,8.55,8.55,0,0,0,0,2.61L73.23,96.52Q67.5,75.18,61.75,53.81Z"/><polygon class="cls-6" points="38.98 104.09 39.39 104.09 38.71 103.62 38.98 104.09"/><path class="cls-7" d="M54.94.05,43.6.09a10.2,10.2,0,0,0-3.9,1.27A10.07,10.07,0,0,0,37,3.66L33.89,9l1.83,8.35q2.73-4.74,5.47-9.49a6,6,0,0,1,1.69-1.3,6.15,6.15,0,0,1,2-.63H63.26Z"/><path class="cls-7" d="M29.52,28.06q1.29-2.22,2.57-4.45l-1.82-8.35-7.8,13.5Z"/><path class="cls-7" d="M16,52.06a2.52,2.52,0,0,1,.31-1.12q4.45-7.74,8.92-15.46l-7,.7-6.94,12a8.75,8.75,0,0,0-.79,3.08A8.37,8.37,0,0,0,10.53,53l9.41,6.61-3.55-6.16A2.44,2.44,0,0,1,16,52.06Z"/></g></g></svg>