<svg xmlns="http://www.w3.org/2000/svg" viewBox="0 0 117.1 103.92"><defs><style>.cls-1{fill:#347ca0;}.cls-2{fill:#255f7b;}.cls-3{fill:#f1f2ed;}.cls-4{fill:#d1d3d0;}.cls-5{fill:#231f20;}</style></defs><title>documents</title><g id="Layer_2" data-name="Layer 2"><g id="Layer_1-2" data-name="Layer 1"><path class="cls-1" d="M91,4.33A9.6,9.6,0,0,0,83.53,0h-50A9.62,9.62,0,0,0,26,4.33L1,47.63a9.64,9.64,0,0,0,0,8.66l25,43.3a9.62,9.62,0,0,0,7.5,4.33h50A9.6,9.6,0,0,0,91,99.59l25-43.3a9.57,9.57,0,0,0,0-8.66Z"/><path class="cls-1" d="M91,4.33A9.6,9.6,0,0,0,83.53,0h-50A9.62,9.62,0,0,0,26,4.33L1,47.63a9.64,9.64,0,0,0,0,8.66l25,43.3a9.62,9.62,0,0,0,7.5,4.33h50A9.6,9.6,0,0,0,91,99.59l25-43.3a9.57,9.57,0,0,0,0-8.66Z"/><path class="cls-2" d="M24.76,97.39l6.34,6.09a7.58,7.58,0,0,0,1,.29,6.73,6.73,0,0,0,1.15.15H83.65a9.54,9.54,0,0,0,7.41-4.37q12.41-21.51,24.83-43A9.36,9.36,0,0,0,117.1,52a9.55,9.55,0,0,0-1.45-5L98.79,17.77,87.9,7.32l-31,32.28,8.45,8.11L22.12,92.81Z"/><path class="cls-3" d="M87.92,93.79H21.1V21.61L35.37,7.32H87.92Z"/><path class="cls-4" d="M35.32,21.55H21.1L35.32,7.32Z"/><path class="cls-5" d="M71.15,23.54H43.75a3.5,3.5,0,0,1,0-7h27.4a3.5,3.5,0,0,1,0,7Z"/><path class="cls-5" d="M29.93,35.36a3.5,3.5,0,1,1,0-7h0a3.5,3.5,0,0,1,0,7Z"/><path class="cls-5" d="M53.94,35.36H40.56a3.5,3.5,0,0,1,0-7H53.94a3.5,3.5,0,0,1,0,7Z"/><path class="cls-5" d="M79.18,35.36H64a3.5,3.5,0,0,1,0-7H79.18a3.5,3.5,0,0,1,0,7Z"/><path class="cls-5" d="M74.83,46H40.56a3.5,3.5,0,0,1,0-7H74.83a3.5,3.5,0,0,1,0,7Z"/><path class="cls-5" d="M29.93,58.54a3.5,3.5,0,0,1,0-7h0a3.5,3.5,0,0,1,0,7Z"/><path class="cls-5" d="M68.8,58.54H40.56a3.5,3.5,0,0,1,0-7H68.8a3.5,3.5,0,0,1,0,7Z"/><path class="cls-5" d="M79.18,69.15H59.25a3.5,3.5,0,1,1,0-7H79.18a3.5,3.5,0,0,1,0,7Z"/><path class="cls-5" d="M50.16,69.15h-9.6a3.5,3.5,0,0,1,0-7h9.6a3.5,3.5,0,0,1,0,7Z"/><path class="cls-5" d="M29.93,81.43a3.5,3.5,0,1,1,0-7h0a3.5,3.5,0,1,1,0,7Z"/><path class="cls-5" d="M53.94,81.43H40.56a3.5,3.5,0,0,1,0-7H53.94a3.5,3.5,0,0,1,0,7Z"/><path class="cls-5" d="M79.18,81.43H64.89a3.5,3.5,0,1,1,0-7H79.18a3.5,3.5,0,0,1,0,7Z"/></g></g></svg>