<svg xmlns="http://www.w3.org/2000/svg" viewBox="0 0 141.24 103.92"><defs><style>.cls-1{fill:#347ca0;}.cls-2{fill:#255f7b;}.cls-3{fill:#f1f2ed;}.cls-4{fill:#c49a6c;}.cls-5{fill:#a97c50;}.cls-6{fill:#231f20;}.cls-7{fill:#444545;}</style></defs><title>handshake</title><g id="Layer_2" data-name="Layer 2"><g id="Layer_1-2" data-name="Layer 1"><path class="cls-1" d="M102.36,4.33A9.62,9.62,0,0,0,94.86,0h-50a9.6,9.6,0,0,0-7.5,4.33l-25,43.3a9.57,9.57,0,0,0,0,8.66l25,43.3a9.6,9.6,0,0,0,7.5,4.33h50a9.62,9.62,0,0,0,7.5-4.33l25-43.3a9.64,9.64,0,0,0,0-8.66Z"/><path class="cls-2" d="M96.07,103.84H83.32L39.23,61,60.4,39.2l52.45-4.75,17,16.52-2.31,4.86L103,98.47a9.89,9.89,0,0,1-3.18,3.75A9.7,9.7,0,0,1,96.07,103.84Z"/><rect class="cls-3" x="2.7" y="28.96" width="44.2" height="27.08" transform="translate(9.38 -4.23) rotate(12)"/><path class="cls-4" d="M91.52,59.28,68.25,35.87l-7.64-1.63a8.24,8.24,0,0,0-3.91.68,8.54,8.54,0,0,0-4.09,3.95l-4.3-.65-4.55,21.4,1,.48,21,15.16,2,1.48a4.17,4.17,0,0,0,.47.36l.16.12,0,0A3.61,3.61,0,0,0,73.76,74a3.54,3.54,0,0,0-.35-1.53l.93.7v0a3.57,3.57,0,0,0,2,.63,3.63,3.63,0,0,0,2.73-6l1.52,1.14.35.26.18.13v0a3.68,3.68,0,0,0,1.75.46,3.61,3.61,0,0,0,3.15-5.43l1.34,1,0-.06a3.59,3.59,0,0,0,1.78.48,3.62,3.62,0,0,0,2.27-6.46Z"/><path class="cls-5" d="M92.41,35.76,87,36.61a8.93,8.93,0,0,0-2.42-2.88,9.14,9.14,0,0,0-5.24-1.86l-9.84,2.06L57.67,50.12A7.91,7.91,0,0,0,62,52c3.78.32,7.7-2.47,9.71-7L92,59.71l3.27-2.22,1.67-.56Z"/><path class="cls-5" d="M66,67.38a3.12,3.12,0,0,0-2.13.85A3,3,0,0,0,64.12,67a3.21,3.21,0,0,0-3.21-3.2,3.16,3.16,0,0,0-2.18.89,3.1,3.1,0,0,0,.34-1.39A3.21,3.21,0,0,0,55.87,60a3.15,3.15,0,0,0-2.3,1h0l0,0a3.74,3.74,0,0,0-.41.55l-1.51,2a3.15,3.15,0,0,0-1,2.29,3.21,3.21,0,0,0,3.21,3.2A3.13,3.13,0,0,0,56,68.27a3.08,3.08,0,0,0-.33,1.38,3.2,3.2,0,0,0,3.2,3.21A3.13,3.13,0,0,0,61,72a3.19,3.19,0,0,0,5.2,3.52v0l.14-.19c.09-.11.18-.22.26-.34l1.63-2.19A3.2,3.2,0,0,0,66,67.38Z"/><path class="cls-5" d="M46.16,61.39a3.21,3.21,0,0,0,3.21,3.21,3.14,3.14,0,0,0,1.23-.25l-4.41-3.18A1.66,1.66,0,0,0,46.16,61.39Z"/><rect class="cls-6" x="2.74" y="26.82" width="40.75" height="30.65" transform="translate(9.27 -3.89) rotate(12)"/><rect class="cls-3" x="94.33" y="28.96" width="44.2" height="27.08" transform="translate(239.16 59.86) rotate(168)"/><rect class="cls-7" x="97.75" y="26.82" width="40.75" height="30.65" transform="translate(242.43 58.81) rotate(168)"/></g></g></svg>