<svg xmlns="http://www.w3.org/2000/svg" viewBox="0 0 118.77 126.44"><defs><style>.cls-1{fill:#347ca0;}.cls-2{fill:#255f7b;opacity:0.5;}.cls-3{fill:#fcba17;}.cls-4{fill:#231f20;}.cls-5{fill:#fbb919;}</style></defs><title>highlights</title><g id="Layer_2" data-name="Layer 2"><g id="Layer_1-2" data-name="Layer 1"><path class="cls-1" d="M91,26.85a9.6,9.6,0,0,0-7.5-4.33h-50A9.62,9.62,0,0,0,26,26.85L1,70.15a9.64,9.64,0,0,0,0,8.66l25,43.3a9.59,9.59,0,0,0,7.5,4.33h50a9.58,9.58,0,0,0,7.5-4.33l25-43.3a9.57,9.57,0,0,0,0-8.66Z"/><path class="cls-1" d="M91,26.85a9.6,9.6,0,0,0-7.5-4.33h-50A9.62,9.62,0,0,0,26,26.85L1,70.15a9.64,9.64,0,0,0,0,8.66l25,43.3a9.59,9.59,0,0,0,7.5,4.33h50a9.58,9.58,0,0,0,7.5-4.33l25-43.3a9.57,9.57,0,0,0,0-8.66Z"/><path class="cls-2" d="M116.42,71a9.47,9.47,0,0,1-.72,8.46l-18,31.19-5.21,9.12L46.38,74.8,81.55,28.94,103.23,48Z"/><path class="cls-3" d="M93.54,1.7A8,8,0,0,0,82.3,3L57.61,34.43l-4.25,5.39v0c-2.14,2.72-2.48,6.06-.76,7.42l1.57,1.23.56.44c.61.48,1,1,.85,1.21l-.13.17L54,52.22l-1.22,1.55a3.89,3.89,0,0,0,.58,5.46l1.51,1.19,1.67,1.31,11.29,8.89L69.57,72c2,1.54,5.16.78,7.11-1.7l.08-.09,0,0,1.68-2.12h0l.07-.09c.07-.1.6.18,1.17.63h0A5.53,5.53,0,0,0,87.49,68l1.64-2.08,3.54-4.5,24.4-31a8,8,0,0,0-1.34-11.24Z"/><path class="cls-3" d="M49.26,76.13a3.26,3.26,0,0,1-1.78-.61l-.43-.33L46.79,75c-.28-.22-.24-.76.1-1.19l7-8.88a1,1,0,0,1,1.41-.17L64.55,72a1,1,0,0,1,.17,1.4L63.26,75.3a2.35,2.35,0,0,1-1.62.79Z"/><path class="cls-4" d="M72.51,72.94a4.7,4.7,0,0,1-3-1L52.89,58.9a3.84,3.84,0,0,1-1.08-2.19,3.88,3.88,0,0,1,.66-2.64l3.25-4.13,22.85,18L75.72,71.5A4.76,4.76,0,0,1,72.51,72.94Z"/><path class="cls-5" d="M55.8,103.05h0l-13.89,0a5.5,5.5,0,0,1,0-11h0l13.89,0a5.5,5.5,0,0,1,0,11Z"/><path class="cls-5" d="M72.09,115.09H68.55a5.5,5.5,0,1,1,0-11H72.1a5.5,5.5,0,0,1,0,11Z"/><path class="cls-4" d="M32.11,101.05H13.86l-3.77-6.52a2.69,2.69,0,0,1,.38-.19,3.66,3.66,0,0,1,1.38-.29H32.11a3.5,3.5,0,0,1,0,7Z"/><path class="cls-4" d="M55.65,101.05h-14a3.5,3.5,0,0,1,0-7h14a3.5,3.5,0,0,1,0,7Z"/><path class="cls-4" d="M103.19,101.05h-38a3.5,3.5,0,0,1,0-7l42.08,0Q105.23,97.53,103.19,101.05Z"/><path class="cls-4" d="M22,113.1H20.82l-3.76-6.53a2.86,2.86,0,0,1,.58-.27,3.52,3.52,0,0,1,1.16-.2H22a3.5,3.5,0,1,1,0,7Z"/><path class="cls-4" d="M58.79,113.1H31.84a3.5,3.5,0,0,1,0-7h27a3.5,3.5,0,0,1,0,7Z"/><path class="cls-4" d="M72,113.1H68.64a3.5,3.5,0,0,1,0-7H72a3.5,3.5,0,0,1,0,7Z"/><path class="cls-4" d="M96.21,113.1H81.85a3.5,3.5,0,0,1,0-7H98.26a2.89,2.89,0,0,1,1.31.23,2,2,0,0,1,.44.24l-.4.68Q97.92,110.18,96.21,113.1Z"/><path class="cls-4" d="M32.29,125.14H29.2a8.35,8.35,0,0,1-1.77-1.3A8.8,8.8,0,0,1,26,122L24,118.6a2.43,2.43,0,0,1,.25-.2,2.07,2.07,0,0,1,1.5-.26h6.53a3.5,3.5,0,1,1,0,7Z"/><path class="cls-4" d="M55.83,125.14h-14a3.5,3.5,0,0,1,0-7h14a3.5,3.5,0,0,1,0,7Z"/><path class="cls-4" d="M87.86,125.14H65.36a3.5,3.5,0,0,1,0-7h26a3.5,3.5,0,0,1,1.09.17,3.79,3.79,0,0,1,.63.28l-1.21,2.15c-.26.52-.52.94-.72,1.26a9.66,9.66,0,0,1-.85,1.18,8.36,8.36,0,0,1-1,1A10.18,10.18,0,0,1,87.86,125.14Z"/></g></g></svg>