<svg width="190" height="190" viewBox="0 0 190 190" fill="none" xmlns="http://www.w3.org/2000/svg">
<path fill-rule="evenodd" clip-rule="evenodd" d="M95 190C147.467 190 190 147.467 190 95C190 42.533 147.467 0 95 0C42.533 0 0 42.533 0 95C0 147.467 42.533 190 95 190ZM71 61.5C71 67.8513 65.8513 73 59.5 73C53.1487 73 48 67.8513 48 61.5C48 55.1487 53.1487 50 59.5 50C65.8513 50 71 55.1487 71 61.5ZM69 79H50V139H69V79ZM80 79H101V87.5C106.325 80.3353 110.349 78.8308 118.5 78.5C127.584 78.7612 131.753 80.9479 138 87.5C141.181 93.6029 141.947 96.9938 142 103V139H121V103C119.292 98.0182 117.831 95.5935 111.5 94C105.572 94.9515 103.511 96.9875 101 102V139H80V79Z" fill="#222222"/>
</svg>
