<svg xmlns="http://www.w3.org/2000/svg" viewBox="0 0 129.28 103.92"><defs><style>.cls-1{fill:#347ca0;}.cls-2{fill:#255f7b;}.cls-3{fill:#808285;}</style></defs><title>links</title><g id="Layer_2" data-name="Layer 2"><g id="Layer_1-2" data-name="Layer 1"><path class="cls-1" d="M103.21,4.33A9.6,9.6,0,0,0,95.71,0h-50a9.62,9.62,0,0,0-7.5,4.33l-25,43.3a9.64,9.64,0,0,0,0,8.66l25,43.3a9.62,9.62,0,0,0,7.5,4.33h50a9.6,9.6,0,0,0,7.5-4.33l25-43.3a9.57,9.57,0,0,0,0-8.66Z"/><path class="cls-2" d="M128.88,54.69a8.24,8.24,0,0,0,.21-1.06l-6.86-1.36-9.54-9.1-5.79,6.07c-8.23-5-16.08-6-19.48-2.62a6.36,6.36,0,0,0-1.62,2.94l-.63,2.6L49.6,46.26l0-2.61-.69-4.42L22,32.42,13.08,47.86a9.54,9.54,0,0,0-.67,2,9.19,9.19,0,0,0-.24,2.28A16.77,16.77,0,0,0,14,57.61c.25.49.46.82.53.93,1.06,1.7,7.31,12.49,23.73,41.07a9.28,9.28,0,0,0,7.64,4.31h50a9.6,9.6,0,0,0,4.2-1.32,11.38,11.38,0,0,0,3-2.74c2-2.65,12-19.89,25.24-43.72A7.92,7.92,0,0,0,128.88,54.69Z"/><path class="cls-3" d="M46.73,45.51a4.5,4.5,0,0,0-1.44,8.88l42.62,6.93h0a4.5,4.5,0,0,0,1.44-8.89L46.73,45.51Z"/><path class="cls-3" d="M129.2,53a5.75,5.75,0,0,0,0-1.48h0a11.3,11.3,0,0,0-.24-1.71c-.5-2-4.79-4.07-5-4.16a25.34,25.34,0,0,0-7.41-2.13l-24.54-4-.16,0A17.14,17.14,0,0,0,79,43.27a17.68,17.68,0,0,0-4,4.55l10.73,1.74a8,8,0,0,1,5-1.07l24.68,4,.48,0a9.22,9.22,0,0,1,2.94.63,9.32,9.32,0,0,1,5.84,9.26l-3.16,5.49a9.43,9.43,0,0,1-.93.64,9.67,9.67,0,0,1-4.35,1.36,9.38,9.38,0,0,1-3.06-.34,4.7,4.7,0,0,0-.51-.12L88,65.46a8,8,0,0,1-4.36-2.56L72.83,61.15A17.41,17.41,0,0,0,86.29,74.31l.15,0,24.53,4a17.91,17.91,0,0,0,1.85.4,18.8,18.8,0,0,0,2.31.22c2-3.4,3.63-6.28,4.91-8.51,3-5.25,4.54-7.87,4.62-8,1.17-1.74,2.06-3.64,3.17-5.42a9.26,9.26,0,0,0,1.37-4Z"/><path class="cls-3" d="M40.81,57.85a3.1,3.1,0,0,0-.51-.11l-24.68-4a8.62,8.62,0,0,1-6.55-9.43,8.74,8.74,0,0,1,3.23-5.74,8.2,8.2,0,0,1,6.08-1.81l24.67,4a2.72,2.72,0,0,0,.49.05,9.13,9.13,0,0,1,6.19,2.85l11.08,1.8A18.66,18.66,0,0,0,57.59,39a18.4,18.4,0,0,0-13.32-7.14l-24.54-4-.17,0A17.06,17.06,0,0,0,6.67,31.55a17.62,17.62,0,0,0,7.27,31l.16,0,24.52,4a16.94,16.94,0,0,0,1.85.4,18.35,18.35,0,0,0,18.3-8.17L47.85,57A9.21,9.21,0,0,1,40.81,57.85Z"/></g></g></svg>