<svg xmlns="http://www.w3.org/2000/svg" viewBox="0 0 117.06 103.94"><defs><style>.cls-1{fill:#347ca0;}.cls-2{fill:#4eaac5;opacity:0.5;}.cls-3{fill:#be1e2d;}.cls-4{fill:#a7a9ac;}.cls-5{fill:#414042;}.cls-6{fill:#ef4136;}.cls-7{fill:#ffde17;}</style></defs><title>mission</title><g id="Layer_2" data-name="Layer 2"><g id="Layer_1-2" data-name="Layer 1"><path class="cls-1" d="M91,4.33A9.6,9.6,0,0,0,83.53,0h-50A9.62,9.62,0,0,0,26,4.33L1,47.63a9.64,9.64,0,0,0,0,8.66l25,43.3a9.62,9.62,0,0,0,7.5,4.33h50A9.6,9.6,0,0,0,91,99.59l25-43.3a9.57,9.57,0,0,0,0-8.66Z"/><path class="cls-2" d="M83,103.94l-12.35,0L42.88,76.49,67.15,53.26l33-1.14,12.08,10.67-4,7.14L92.54,97.06c-.25.45-.62,1.09-1.1,1.84a15.63,15.63,0,0,1-1.58,2.18,8.68,8.68,0,0,1-3.1,2.1A9.62,9.62,0,0,1,83,103.94Z"/><path class="cls-3" d="M60.69,94.11,42.88,76.49a22.52,22.52,0,0,1-3.75-8.95,63.28,63.28,0,0,1-.48-8c-.06-2.19-.07-4-.08-5.27L61.16,76.58Q60.92,85.36,60.69,94.11Z"/><path class="cls-4" d="M83.69,53.81,61.16,76.58l-32.37-32A57,57,0,0,1,16.06,25.94c-2.28-5.42-6.22-14.81-2.48-18.6s12.5-.2,18.3,2.05a59.26,59.26,0,0,1,19.44,12.4Z"/><circle class="cls-5" cx="37.26" cy="30.41" r="10.14"/><path class="cls-3" d="M101.21,53.16,83.4,35.53a22.76,22.76,0,0,0-9-3.65,62.91,62.91,0,0,0-8-.39c-2.19,0-4,0-5.27,0L83.69,53.81Z"/><path class="cls-6" d="M91.86,67.9c-3.72-3.42-11.92-5.35-17.31.09s-3.37,13.63.09,17.31a9.55,9.55,0,0,0,2.43,1.86l28,11L93.74,70.3A9.82,9.82,0,0,0,91.86,67.9Z"/><path class="cls-7" d="M89.45,71.3C87,69,81.53,67.74,78,71.36s-2.24,9,.06,11.5a6.64,6.64,0,0,0,1.61,1.23L98.2,91.41,90.7,72.89A6.33,6.33,0,0,0,89.45,71.3Z"/></g></g></svg>