<svg width="441" height="431" viewBox="0 0 441 431" fill="none" xmlns="http://www.w3.org/2000/svg">
<path d="M0 220.5C0 98.7212 98.7212 0 220.5 0C342.279 0 441 98.7212 441 220.5C441 317.439 378.445 399.767 291.5 429.32C291.5 429.32 284.7 431.087 281 429.32C277.929 427.853 275 423 275 423V348.5C275 348.5 272.929 337.151 270 331C267.071 324.849 260 317 260 317C260 317 287 318.5 320 298.5C353 278.5 357 242.5 357 242.5C357 242.5 362.5 220.5 359 195.5C355.5 170.5 338 150.5 338 150.5C338 150.5 340.339 143.418 341.5 134C342.321 127.338 342.327 118.757 341.5 114C339.5 102.5 335.5 92 335.5 92C335.5 92 329.138 91.064 319.5 93.5C312.315 95.316 302.198 100.151 297.5 102.5C286.5 108 275 115 275 115C275 115 251 108 222 107.5C193 107 165.5 115 165.5 115C165.5 115 156.5 108 137 99C117.5 90 105.5 92 105.5 92C105.5 92 100 102 98.5 120.5C97 139 103.5 150.5 103.5 150.5C103.5 150.5 89.3269 166.096 83 188C78.5391 203.444 80.5245 223.28 83 237.5C85.5208 251.98 85.9204 256.262 95.5 273C101.407 283.321 110.57 291.634 119 298C135.328 308.065 145.287 311.289 167 315.5L180.5 317.5C168 331.5 167 347 166 347.5C165.536 347.732 162 349.652 158 351C154 352.348 135.5 353 135.5 353C135.5 353 121.5 353.5 110 340C98.5 326.5 104 325.5 91 315.5C78 305.5 66 307 66 307H65.9254C62.471 307 60.4549 307 60 310C59.584 312.744 63.5 315.5 63.5 315.5C63.5 315.5 77.1552 325.794 83.5 334.5C89.8781 343.252 88 345 95.5 359.5C103 374 124 378.5 132.5 378.997C141 379.495 154 379.495 158 378.997C162 378.5 162.626 378.651 166 378.5V423C166 423 162.5 431.5 150.5 429.657C63.035 400.397 0 317.81 0 220.5Z" fill="#222222"/>
</svg>
